<svg viewBox="0 0 42 42" fill="none" xmlns="http://www.w3.org/2000/svg">
<path fill-rule="evenodd" clip-rule="evenodd" d="M0 21.1172C0 31.5577 7.58275 40.2395 17.5 42V26.8327H12.25V21H17.5V16.3327C17.5 11.0827 20.8827 8.16725 25.6672 8.16725C27.1827 8.16725 28.8172 8.4 30.3327 8.63275V14H27.65C25.0827 14 24.5 15.2827 24.5 16.9172V21H30.1L29.1672 26.8327H24.5V42C34.4172 40.2395 42 31.5595 42 21.1172C42 9.5025 32.55 0 21 0C9.45 0 0 9.5025 0 21.1172Z" fill="url(#paint0_linear_17_52)"/>
<path d="M41.5 21.1173C41.5 31.1047 34.3941 39.4435 25 41.3946V27.3327H29.1672H29.5936L29.661 26.9117L30.5937 21.079L30.6863 20.5H30.1H25V16.9172C25 16.1428 25.1415 15.5655 25.486 15.1778C25.8205 14.8015 26.4415 14.5 27.65 14.5H30.3327H30.8327V14V8.63275V8.20368L30.4086 8.13854C28.8957 7.90618 27.2259 7.66725 25.6672 7.66725C23.1743 7.66725 20.9988 8.42813 19.4433 9.92045C17.8844 11.416 17 13.5968 17 16.3328V20.5H12.25H11.75V21V26.8327V27.3327H12.25H17V41.3946C7.60587 39.4434 0.5 31.103 0.5 21.1173C0.5 9.77602 9.72876 0.5 21 0.5C32.2712 0.5 41.5 9.77602 41.5 21.1173Z" stroke="white" stroke-opacity="0.4"/>
<defs>
<linearGradient id="paint0_linear_17_52" x1="0" y1="0" x2="42" y2="51" gradientUnits="userSpaceOnUse">
<stop stop-color="white" stop-opacity="0.8"/>
<stop offset="1" stop-color="white" stop-opacity="0.2"/>
</linearGradient>
</defs>
</svg>
