<svg viewBox="0 0 43 42" fill="none" xmlns="http://www.w3.org/2000/svg">
<path d="M21.1108 13.997C17.2547 13.997 14.1079 17.1439 14.1079 21C14.1079 24.8561 17.2547 28.003 21.1108 28.003C24.9669 28.003 28.1138 24.8561 28.1138 21C28.1138 17.1439 24.9669 13.997 21.1108 13.997ZM42.1145 21C42.1145 18.1 42.1408 15.2263 41.9779 12.3316C41.8151 8.96937 41.0481 5.98536 38.5894 3.52669C36.1255 1.06278 33.1467 0.301015 29.7844 0.138155C26.8845 -0.0247052 24.0108 0.00156264 21.1161 0.00156264C18.2161 0.00156264 15.3424 -0.0247052 12.4477 0.138155C9.08546 0.301015 6.10144 1.06803 3.64278 3.52669C1.17887 5.99061 0.417104 8.96937 0.254244 12.3316C0.0913837 15.2316 0.117652 18.1053 0.117652 21C0.117652 23.8947 0.0913837 26.7737 0.254244 29.6684C0.417104 33.0306 1.18412 36.0146 3.64278 38.4733C6.1067 40.9372 9.08546 41.699 12.4477 41.8618C15.3477 42.0247 18.2214 41.9984 21.1161 41.9984C24.016 41.9984 26.8897 42.0247 29.7844 41.8618C33.1467 41.699 36.1307 40.932 38.5894 38.4733C41.0533 36.0094 41.8151 33.0306 41.9779 29.6684C42.1461 26.7737 42.1145 23.9 42.1145 21V21ZM21.1108 31.775C15.1481 31.775 10.3358 26.9628 10.3358 21C10.3358 15.0372 15.1481 10.225 21.1108 10.225C27.0736 10.225 31.8859 15.0372 31.8859 21C31.8859 26.9628 27.0736 31.775 21.1108 31.775ZM32.3272 12.3001C30.935 12.3001 29.8107 11.1759 29.8107 9.78367C29.8107 8.39148 30.935 7.26722 32.3272 7.26722C33.7194 7.26722 34.8436 8.39148 34.8436 9.78367C34.844 10.1143 34.7792 10.4417 34.6529 10.7472C34.5266 11.0527 34.3412 11.3302 34.1075 11.564C33.8737 11.7978 33.5962 11.9831 33.2907 12.1094C32.9852 12.2357 32.6577 12.3005 32.3272 12.3001V12.3001Z" fill="url(#paint0_linear_17_64)"/>
<path d="M41.4785 12.3558L41.4787 12.3597C41.6208 14.8858 41.6181 17.3956 41.6153 19.938C41.6149 20.2913 41.6145 20.6453 41.6145 21C41.6145 21.3971 41.6151 21.7933 41.6157 22.1886C41.6194 24.6882 41.623 27.1558 41.4788 29.6394L41.4785 29.6442C41.3187 32.9438 40.5764 35.7792 38.2358 38.1198C35.9004 40.4552 33.0597 41.2026 29.7603 41.3624L29.7564 41.3626C27.2303 41.5048 24.7204 41.502 22.178 41.4992C21.8247 41.4988 21.4708 41.4984 21.1161 41.4984C20.7621 41.4984 20.4089 41.4988 20.0561 41.4992C17.5172 41.502 15.0066 41.5048 12.4758 41.3626L12.4719 41.3624C9.17229 41.2026 6.3369 40.4603 3.99634 38.1198C1.66093 35.7843 0.913474 32.9436 0.753673 29.6442L0.753454 29.6403C0.61133 27.1141 0.614089 24.6001 0.616876 22.0601C0.617264 21.7073 0.617652 21.3539 0.617652 21C0.617652 20.646 0.617264 20.2927 0.616876 19.9399C0.614089 17.401 0.611332 14.8904 0.753457 12.3597H0.753472L0.753658 12.3558C0.913484 9.0562 1.65578 6.22081 3.99634 3.88025C6.33175 1.54484 9.17251 0.797385 12.4719 0.637569L12.4719 0.637585L12.4758 0.637365C15.0018 0.495248 17.5117 0.498 20.0541 0.500787C20.4074 0.501175 20.7614 0.501563 21.1161 0.501563C21.4701 0.501563 21.8234 0.501175 22.1762 0.500787C24.7151 0.498 27.2257 0.495243 29.7564 0.637368V0.637383L29.7603 0.637569C33.0599 0.797396 35.8953 1.53969 38.2358 3.88025C40.5713 6.21566 41.3187 9.05642 41.4785 12.3558ZM14.6079 21C14.6079 17.42 17.5309 14.497 21.1108 14.497C24.6908 14.497 27.6138 17.42 27.6138 21C27.6138 24.58 24.6908 27.503 21.1108 27.503C17.5309 27.503 14.6079 24.58 14.6079 21ZM9.8358 21C9.8358 27.2389 14.8719 32.275 21.1108 32.275C27.3498 32.275 32.3859 27.2389 32.3859 21C32.3859 14.7611 27.3498 9.72497 21.1108 9.72497C14.8719 9.72497 9.8358 14.7611 9.8358 21ZM29.3107 9.78367C29.3107 11.4518 30.6585 12.7998 32.3265 12.8001L35.3436 9.78367C35.3436 9.78346 35.3436 9.78325 35.3436 9.78304C35.3433 8.115 33.9953 6.76722 32.3272 6.76722C30.6588 6.76722 29.3107 8.11534 29.3107 9.78367Z" stroke="white" stroke-opacity="0.4"/>
<defs>
<linearGradient id="paint0_linear_17_64" x1="-3.55623e-07" y1="3.75339e-07" x2="42" y2="42" gradientUnits="userSpaceOnUse">
<stop stop-color="white" stop-opacity="0.8"/>
<stop offset="1" stop-color="white" stop-opacity="0.2"/>
</linearGradient>
</defs>
</svg>
