<svg viewBox="0 0 43 42" fill="none" xmlns="http://www.w3.org/2000/svg">
<path fill-rule="evenodd" clip-rule="evenodd" d="M42.1161 21C42.1161 32.5972 32.7133 42 21.1161 42C9.51884 42 0.116089 32.5972 0.116089 21C0.116089 9.40275 9.51884 0 21.1161 0C32.7133 0 42.1161 9.40275 42.1161 21ZM21.8686 15.5032C19.8263 16.352 15.7436 18.1107 9.62209 20.7777C8.62809 21.1732 8.10659 21.56 8.05934 21.938C7.97884 22.5785 8.78034 22.8305 9.86884 23.1717C10.0176 23.219 10.1716 23.2662 10.3291 23.3187C11.4018 23.667 12.8438 24.0747 13.5928 24.0905C14.2736 24.1045 15.0331 23.8245 15.8713 23.2505C21.5903 19.3882 24.5426 17.437 24.7281 17.395C24.8593 17.3652 25.0413 17.3267 25.1638 17.437C25.2863 17.5455 25.2741 17.752 25.2618 17.808C25.1813 18.1457 22.0418 21.0665 20.4143 22.5785C19.9068 23.0492 19.5481 23.3835 19.4746 23.4605C19.3101 23.6302 19.1421 23.793 18.9811 23.9487C17.9836 24.9077 17.2381 25.6287 19.0231 26.8047C19.8806 27.37 20.5666 27.8372 21.2508 28.3027C21.9981 28.812 22.7436 29.3195 23.7096 29.953C23.9546 30.114 24.1891 30.2802 24.4183 30.443C25.2881 31.0642 26.0703 31.6207 27.0363 31.5332C27.5963 31.4807 28.1773 30.954 28.4713 29.3807C29.1661 25.6602 30.5346 17.6032 30.8513 14.2817C30.8706 14.006 30.8589 13.7289 30.8163 13.4557C30.7909 13.2351 30.6834 13.0321 30.5153 12.887C30.2651 12.6822 29.8766 12.6385 29.7016 12.642C28.9123 12.656 27.7013 13.0777 21.8686 15.5032Z" fill="url(#paint0_linear_17_62)"/>
<path d="M10.1747 23.7943L10.171 23.7931C10.0626 23.757 9.95808 23.7241 9.85129 23.6905C9.80764 23.6768 9.76361 23.6629 9.71879 23.6487C9.71835 23.6486 9.71791 23.6484 9.71747 23.6483L9.67991 23.6365C9.16892 23.4764 8.6526 23.3146 8.27843 23.1017C8.08086 22.9892 7.882 22.8409 7.7414 22.6339C7.59122 22.4127 7.52825 22.1546 7.5632 21.876C7.56321 21.8759 7.56323 21.8758 7.56324 21.8756L8.05934 21.938C8.10659 21.56 8.62809 21.1732 9.62209 20.7778L10.1747 23.7943ZM10.1747 23.7943C10.7178 23.9706 11.358 24.1632 11.9608 24.3143C12.5519 24.4625 13.147 24.5812 13.5823 24.5904L13.5826 24.5904C14.4071 24.6073 15.2688 24.2689 16.1525 23.664C19.011 21.7335 21.1767 20.2816 22.6505 19.3073C23.2825 18.8894 23.7858 18.5604 24.1613 18.3196C23.86 18.6266 23.4838 18.9956 23.0714 19.3927C22.0769 20.3504 20.8885 21.4555 20.0743 22.2119L10.1747 23.7943ZM29.6927 12.1421C29.2082 12.1507 28.6402 12.2865 27.5058 12.6983C26.3627 13.1133 24.5911 13.8296 21.6766 15.0416C19.6305 15.8919 15.5463 17.6513 9.42968 20.3162L21.2508 28.3027C21.9981 28.812 22.7436 29.3195 23.7096 29.953L23.435 30.3708C23.4351 30.3709 23.4353 30.371 23.4354 30.3711C23.6714 30.5262 23.8985 30.6872 24.1283 30.8503C24.1479 30.8643 24.1677 30.8784 24.1875 30.8926C25.0057 31.4776 25.9264 32.1358 27.0814 32.0312L27.083 32.0311C28 31.9451 28.6597 31.0948 28.9628 29.4726L28.9628 29.4725C29.6572 25.754 31.0299 17.6761 31.3491 14.3292L31.3492 14.3292L31.3501 14.3166C31.3718 14.0065 31.3589 13.695 31.3118 13.3878M29.6927 12.1421L29.7016 12.642L29.6916 12.1421C29.692 12.1421 29.6923 12.1421 29.6927 12.1421ZM29.6927 12.1421C29.8205 12.1396 30.0036 12.1538 30.197 12.2002C30.3878 12.2461 30.6272 12.3325 30.832 12.5L30.8422 12.5084L30.8421 12.5085C31.1024 12.7333 31.2697 13.0467 31.3118 13.3878M31.3118 13.3878C31.3113 13.3848 31.3108 13.3818 31.3104 13.3788L30.8163 13.4557L31.313 13.3984C31.3126 13.3949 31.3122 13.3913 31.3118 13.3878ZM20.9106 28.676L20.9693 28.7159L20.4143 22.5785C19.9068 23.0492 19.5481 23.3835 19.4746 23.4605L19.1155 23.1125C19.1152 23.1128 19.1149 23.1132 19.1146 23.1135C18.9568 23.2762 18.7947 23.4333 18.6334 23.5894L18.6256 23.5969C18.3845 23.8288 18.1319 24.0715 17.9302 24.3159C17.7273 24.5618 17.5356 24.8555 17.468 25.1989C17.3157 25.9738 17.8319 26.6187 18.7479 27.2222C19.5774 27.769 20.2457 28.2237 20.9106 28.676ZM24.9146 17.8573C24.9146 17.8573 24.9145 17.8573 24.9145 17.8573C24.9147 17.8573 24.9147 17.8572 24.9147 17.8573C24.9147 17.8573 24.9147 17.8573 24.9146 17.8573ZM24.8065 17.6076C24.8092 17.6028 24.8108 17.6002 24.811 17.6002C24.8111 17.6002 24.8098 17.6026 24.8065 17.6076ZM41.6161 21C41.6161 32.3211 32.4372 41.5 21.1161 41.5C9.79498 41.5 0.616089 32.3211 0.616089 21C0.616089 9.67889 9.79498 0.5 21.1161 0.5C32.4372 0.5 41.6161 9.67889 41.6161 21Z" stroke="white" stroke-opacity="0.4"/>
<defs>
<linearGradient id="paint0_linear_17_62" x1="1.28372e-07" y1="-1.13737e-07" x2="42" y2="54.5" gradientUnits="userSpaceOnUse">
<stop stop-color="white" stop-opacity="0.8"/>
<stop offset="1" stop-color="white" stop-opacity="0.2"/>
</linearGradient>
</defs>
</svg>
