<svg viewBox="0 0 52 42" fill="none" xmlns="http://www.w3.org/2000/svg">
<path d="M51.821 4.97502C50.3811 7.11666 48.6147 8.9423 46.5217 10.4519C46.5424 10.8568 46.5527 11.3144 46.5527 11.8248C46.5527 14.6604 46.1393 17.4995 45.3124 20.342C44.4856 23.1845 43.2226 25.9053 41.5234 28.5044C39.8242 31.1035 37.8002 33.406 35.4513 35.4121C33.1024 37.4181 30.2789 39.0176 26.9809 40.2106C23.6828 41.4035 20.1482 42 16.377 42C10.4914 42 5.07133 40.4111 0.116821 37.2333C0.996188 37.3312 1.83958 37.3801 2.64698 37.3801C7.56392 37.3801 11.9555 35.8656 15.8218 32.8367C13.5293 32.7946 11.4761 32.0889 9.66236 30.7195C7.84861 29.3501 6.60043 27.6003 5.91781 25.47C6.59253 25.5985 7.25845 25.6628 7.91558 25.6628C8.86148 25.6628 9.79223 25.5394 10.7078 25.2927C8.26124 24.8027 6.2316 23.5841 4.61888 21.637C3.00622 19.6899 2.19989 17.4426 2.19989 14.895V14.7637C3.70162 15.5952 5.30344 16.0375 7.00536 16.0906C5.55603 15.1244 4.40692 13.8644 3.55805 12.3106C2.70911 10.7569 2.28465 9.07548 2.28465 7.26637C2.28465 5.35837 2.76276 3.58166 3.71899 1.93624C6.3796 5.20123 9.60349 7.81072 13.3907 9.7647C17.1779 11.7187 21.2408 12.8039 25.5795 13.0203C25.3945 12.2491 25.3018 11.4443 25.3015 10.6059C25.3015 7.67863 26.3374 5.17915 28.4092 3.10749C30.4811 1.03583 32.9806 0 35.9079 0C38.9727 0 41.5542 1.11595 43.6524 3.34786C46.0497 2.87301 48.2943 2.01412 50.3864 0.771203C49.5804 3.30772 48.0273 5.26447 45.7272 6.64145C47.8412 6.39024 49.8725 5.83476 51.8209 4.97502H51.821Z" fill="url(#paint0_linear_17_58)"/>
<path d="M2.16883 37.8746C6.5514 40.2923 11.2849 41.5 16.377 41.5C20.0946 41.5 23.5712 40.9122 26.8108 39.7404C30.0599 38.5651 32.8292 36.9939 35.1266 35.0318C37.4391 33.0569 39.4316 30.7903 41.1049 28.2308C42.7784 25.6711 44.02 22.9952 44.8323 20.2024C45.6466 17.4032 46.0527 14.6111 46.0527 11.8248C46.0527 11.3209 46.0425 10.872 46.0223 10.4774L46.0085 10.2056L46.2292 10.0464C47.8098 8.90636 49.1992 7.58246 50.3983 6.0738C48.9063 6.59513 47.3687 6.94991 45.7862 7.13796L45.4704 6.21245C47.2711 5.13446 48.5865 3.69106 49.4256 1.87273C47.6367 2.7879 45.7443 3.44322 43.7495 3.83833L43.4778 3.89215L43.2881 3.69033C41.2844 1.559 38.8348 0.5 35.9079 0.5C33.1134 0.5 30.7409 1.48306 28.7627 3.46106C26.7846 5.439 25.8015 7.81126 25.8015 10.6057L2.16883 37.8746ZM2.16883 37.8746C2.32947 37.8783 2.48886 37.8801 2.64698 37.8801C7.67557 37.8801 12.1758 36.3282 16.1302 33.2303L17.2378 32.3625L15.831 32.3367C13.643 32.2966 11.6923 31.6256 9.96364 30.3204L9.69162 30.6807L9.96364 30.3204C8.45618 29.1823 7.3624 27.7747 6.67504 26.0911C7.0911 26.1388 7.50465 26.1628 7.91558 26.1628C8.90553 26.1628 9.88001 26.0336 10.8379 25.7754L10.806 24.8024C8.47349 24.3352 6.54457 23.1781 5.00395 21.3181C3.61398 19.6398 2.8543 17.7348 2.72113 15.588C4.06922 16.209 5.49333 16.5437 6.98977 16.5904L8.73819 16.6449L7.28271 15.6746C5.90179 14.754 4.8076 13.5549 3.99683 12.0709L3.99682 12.0709C3.18897 10.5923 2.78465 8.9936 2.78465 7.26637C2.78465 5.69026 3.12578 4.21164 3.80936 2.82473C6.41936 5.87749 9.53782 8.33946 13.1614 10.209C17.0133 12.1964 21.1461 13.2998 25.5546 13.5197L26.2215 13.5529L26.0657 12.9036C25.8904 12.1727 25.8018 11.4072 25.8015 10.6059L2.16883 37.8746Z" stroke="white" stroke-opacity="0.4"/>
<defs>
<linearGradient id="paint0_linear_17_58" x1="7.19503e-07" y1="-7.30679e-07" x2="36" y2="36" gradientUnits="userSpaceOnUse">
<stop stop-color="white" stop-opacity="0.8"/>
<stop offset="1" stop-color="white" stop-opacity="0.2"/>
</linearGradient>
</defs>
</svg>
