<svg viewBox="0 0 43 42" fill="none" xmlns="http://www.w3.org/2000/svg">
<path d="M38.9664 9.71225C32.6663 -0.000321063 19.8037 -2.88784 9.82863 3.1497C0.11606 9.18725 -3.03396 22.3123 3.26608 32.0249L3.79109 32.8124L1.69107 40.6875L9.56613 38.5875L10.3536 39.1125C13.7662 40.95 17.4412 42 21.1162 42C25.0538 42 28.9913 40.95 32.4038 38.85C42.1164 32.5499 45.0039 19.6873 38.9664 9.71225V9.71225ZM33.4538 29.9249C32.4038 31.4999 31.0913 32.5499 29.2538 32.8124C28.2038 32.8124 26.8913 33.3374 21.6412 31.2374C17.1787 29.1374 13.5037 25.7249 10.8786 21.7873C9.30363 19.9498 8.51612 17.5873 8.25362 15.2248C8.25362 13.1248 9.04113 11.2873 10.3536 9.97476C10.8786 9.44975 11.4036 9.18725 11.9287 9.18725H13.2412C13.7662 9.18725 14.2912 9.18725 14.5537 10.2373C15.0787 11.5498 16.3912 14.6998 16.3912 14.9623C16.6537 15.2248 16.6537 15.7498 16.3912 16.0123C16.6537 16.5373 16.3912 17.0623 16.1287 17.3248C15.8662 17.5873 15.6037 18.1123 15.3412 18.3748C14.8162 18.6373 14.5537 19.1623 14.8162 19.6873C15.8662 21.2623 17.1787 22.8374 18.4912 24.1499C20.0662 25.4624 21.6412 26.5124 23.4787 27.2999C24.0037 27.5624 24.5287 27.5624 24.7912 27.0374C25.0538 26.5124 26.3663 25.1999 26.8913 24.6749C27.4163 24.1499 27.6788 24.1499 28.2038 24.4124L32.4038 26.5124C32.9288 26.7749 33.4538 27.0374 33.7163 27.2999C33.9788 28.0874 33.9788 29.1374 33.4538 29.9249V29.9249Z" fill="url(#paint0_linear_17_60)"/>
<path d="M4.27421 32.9413L4.33241 32.723L4.20711 32.5351L3.68557 31.7528C3.685 31.752 3.68443 31.7511 3.68386 31.7502C-2.45709 22.2796 0.611874 9.46971 10.0901 3.57592C19.8349 -2.32043 32.3907 0.501173 38.5426 9.9778C44.436 19.7225 41.6133 32.2765 32.1367 38.4272C28.808 40.4743 24.9639 41.5 21.1162 41.5C17.544 41.5 13.9572 40.4812 10.6113 38.6833L9.84348 38.1715L9.65555 38.0462L9.4373 38.1044L2.39672 39.9818L4.27421 32.9413ZM29.2538 33.3124H29.2893L29.3245 33.3074C31.342 33.0192 32.7659 31.8582 33.8698 30.2023C34.5043 29.2506 34.4865 28.0294 34.1907 27.1418L34.1533 27.0298L34.0699 26.9463C33.8896 26.766 33.6446 26.608 33.4066 26.472C33.1648 26.3338 32.892 26.1974 32.6346 26.0688L32.6274 26.0652L28.4274 23.9652C28.154 23.8285 27.8312 23.6941 27.4653 23.7551C27.1057 23.815 26.8143 24.0447 26.5377 24.3213L26.5363 24.3228C26.274 24.585 25.8093 25.0497 25.3764 25.5159C25.1597 25.7493 24.947 25.9873 24.7697 26.2035C24.5999 26.4106 24.4368 26.6283 24.344 26.8138C24.3088 26.8843 24.2748 26.9179 24.2521 26.9347C24.23 26.951 24.2027 26.9633 24.1627 26.969C24.0719 26.982 23.9158 26.9594 23.7023 26.8527L23.6892 26.8461L23.6757 26.8403C21.9006 26.0796 20.3714 25.0639 18.8287 23.7803C17.5513 22.5007 16.2749 20.969 15.252 19.4397C15.1979 19.3177 15.2057 19.2165 15.2429 19.1296C15.2869 19.027 15.3887 18.9101 15.5648 18.822L15.6374 18.7857L15.6947 18.7284C15.8617 18.5614 16.0164 18.3292 16.1362 18.1494C16.1412 18.1419 16.1461 18.1345 16.151 18.1272C16.2917 17.916 16.3937 17.7669 16.4822 17.6784C16.7813 17.3794 17.1359 16.7644 16.9503 16.0805C17.0469 15.8897 17.0881 15.68 17.0881 15.4873C17.0881 15.2408 17.0208 14.9666 16.8563 14.7396C16.8435 14.6918 16.8273 14.6387 16.8094 14.5835C16.7692 14.4596 16.713 14.3022 16.6465 14.1235C16.5131 13.7648 16.3307 13.3008 16.1335 12.8078C15.9361 12.3141 15.7223 11.7879 15.5254 11.3039L15.4665 11.159C15.2985 10.7461 15.1461 10.3715 15.0301 10.0819C14.88 9.50436 14.6299 9.10492 14.2439 8.88438C13.8966 8.68591 13.5152 8.6867 13.2752 8.6872C13.2635 8.68723 13.2521 8.68725 13.2412 8.68725H11.9287C11.2243 8.68725 10.5796 9.0417 10.0001 9.6212C8.59086 11.0304 7.75362 12.9964 7.75362 15.2248V15.2525L7.75668 15.28C8.02553 17.6996 8.83347 20.1575 10.4792 22.0896C13.1472 26.0826 16.8829 29.5508 21.4283 31.6898L21.4418 31.6961L21.4555 31.7017C24.1046 32.7613 25.7899 33.1709 26.9641 33.309C27.7993 33.4073 28.4171 33.3637 28.8499 33.3331C29.009 33.3219 29.1431 33.3124 29.2538 33.3124Z" stroke="white" stroke-opacity="0.4"/>
<defs>
<linearGradient id="paint0_linear_17_60" x1="2" y1="4" x2="36.5" y2="42" gradientUnits="userSpaceOnUse">
<stop stop-color="white" stop-opacity="0.8"/>
<stop offset="1" stop-color="white" stop-opacity="0.2"/>
</linearGradient>
</defs>
</svg>
