<svg width="32" height="32" viewBox="0 0 24 24" fill="none" xmlns="http://www.w3.org/2000/svg">
  <g clipPath="url(#clip0_239_7)">
    <path d="M19.0193 17.2365L18.0585 17.4713L17.8597 17.6223L9.38423 16.4825H4.37048L6.16073 12.0514L9.0712 12.0688L9.77601 13.3478L12.1011 15.7614L11.7999 14.2586L13.875 14.6275L17.8597 17.6223L14.7104 14.6275L14.1932 13.1969L12.3741 8.76641C12.3741 8.76641 10.9763 6.29154 10.9474 6.26381C10.9868 6.26897 14.1932 6.2522 14.1932 6.2522L14.7786 8.63225L16.0695 13.1969L16.4219 14.4321L17.672 15.8788L16.6548 14.3257L17.3196 14.0464L17.6379 15.4544L17.6668 15.8788L19.0193 17.2365Z" fill="#F58C25"/>
    <path d="M9.07114 12.0681L6.16067 12.0514L5.46701 11.3193L5.90473 11.029L5.12051 10.6098L5.7912 10.4311L4.87048 9.86158L5.42173 9.6268L5.55823 8.77734L7.0873 5.97288L9.15645 4.18945L10.9415 6.26248L12.374 8.75992L9.07114 12.0675V12.0681Z" fill="#81491F"/>
    <path d="M4.37048 16.4824H9.38948L10.7597 18.2813C10.7597 18.2813 7.3492 19.2927 5.6377 19.8068C5.19998 18.6612 4.78458 17.5718 4.37048 16.4824Z" fill="#E48027"/>
    <path d="M17.8657 8.88904L18.2693 9.34699L17.974 9.694L18.3828 9.98425L18.0875 10.37L18.1558 10.9788L17.6498 11.5709L14.7787 8.63233L19.3547 4.90552L17.8657 8.88904Z" fill="#81491F"/>
    <path d="M17.8604 17.6223L17.8774 18.7343L16.246 19.5444L10.7545 18.2867C10.7545 18.2867 10.7145 18.315 10.7545 18.2867C13.0566 18.0693 17.8604 17.6223 17.8604 17.6223Z" fill="#D9C6B7"/>
    <path d="M19.3546 4.90552L14.7786 8.63233L14.1932 6.25228L19.3546 4.90552Z" fill="#E48027"/>
    <path d="M14.7787 8.63208L17.6439 11.5707L17.5244 13.0961L16.0695 13.1967L14.7787 8.63208Z" fill="#E57F24"/>
    <path d="M10.7545 18.2808L16.2454 19.5385L17.8768 18.7277L18.997 18.6329L18.1439 19.7281L15.8306 19.9345L10.7545 18.2808Z" fill="#C7B7AB"/>
    <path d="M10.7537 18.2815L9.3894 16.4819L12.101 15.7615L10.7537 18.2815Z" fill="#D76F21"/>
    <path d="M18.9969 18.633C18.6215 18.6665 18.2521 18.7001 17.8767 18.7285L17.8596 17.6165L18.0585 17.4655L19.0192 17.2366C19.0192 17.2366 19.3434 17.4597 19.6216 17.6165C19.4005 17.9738 19.1951 18.3034 18.9969 18.633Z" fill="#2A2626"/>
    <path d="M16.0687 13.1968L17.5243 13.0962L17.3254 14.0463L16.7742 13.3981L16.6548 14.3256L17.6719 15.8787L16.4218 14.4262L16.0694 13.1968H16.0687Z" fill="#D66F21"/>
    <path d="M9.07117 12.0681L12.3741 8.7605L14.1932 13.1968L9.77664 13.3477L9.07117 12.0681Z" fill="#E47E25"/>
    <path d="M10.7545 18.2815L12.1018 15.7615L17.8604 17.6223L10.7545 18.2815Z" fill="#E47F26"/>
    <path d="M9.77661 13.348L14.1932 13.197L13.8749 14.6276L13.1307 13.4989L11.8005 14.2587L9.77661 13.348Z" fill="#D66F21"/>
    <path d="M13.8749 14.6276L14.1932 13.197L14.7103 14.6276L17.8603 17.6224C17.8603 17.6224 14.7844 15.3146 13.8749 14.6276Z" fill="#E47F25"/>
    <path d="M13.875 14.6275L11.7999 14.2586L13.1301 13.4988L13.875 14.6275Z" fill="#32404E"/>
    <path d="M11.8005 14.2585L12.1017 15.7613L9.77661 13.3484L11.8005 14.2591V14.2585Z" fill="#E57F25"/>
    <path d="M16.6548 14.3257L16.7742 13.3982L17.3255 14.0458L16.6548 14.3257Z" fill="#38424D"/>
    <path d="M17.3256 14.0463L17.5244 13.0962L17.7344 14.1076L17.6438 15.4543L17.3256 14.0463Z" fill="#E57F24"/>
  </g>
  <defs>
    <clipPath id="clip0_239_7">
      <rect width="15.75" height="16.125" fill="white" transform="translate(4.125 4.125)"/>
    </clipPath>
  </defs>
</svg>
