<svg width="32" height="32" viewBox="0 0 24 24" fill="none" xmlns="http://www.w3.org/2000/svg">
  <path fill-rule="evenodd" clip-rule="evenodd" d="M11.3631 3.19763C11.7468 2.93412 12.2532 2.93412 12.6369 3.19763L13.237 3.60977C14.397 4.40637 15.7492 4.87761 17.153 4.97448L18.8275 5.09002C19.4338 5.13186 19.8973 5.64773 19.8742 6.25507L19.6231 12.8633C19.5313 15.2768 18.2232 17.4795 16.1479 18.7149L12.5755 20.8417C12.2209 21.0528 11.7791 21.0528 11.4245 20.8417L7.85212 18.7149C5.77681 17.4795 4.46868 15.2768 4.37696 12.8633L4.12583 6.25507C4.10274 5.64773 4.56623 5.13186 5.17257 5.09002L6.84702 4.97448C8.25084 4.87761 9.60305 4.40637 10.763 3.60977L11.3631 3.19763ZM12 5.48962C10.5169 6.49861 8.79201 7.09561 7.00191 7.21914L6.41563 7.25959L6.62534 12.7778C6.68809 14.4292 7.58313 15.9363 9.00308 16.7816L12 18.5657L14.9969 16.7816C16.4169 15.9363 17.3119 14.4292 17.3747 12.7778L17.5844 7.25959L16.9981 7.21914C15.208 7.09561 13.4832 6.49861 12 5.48962Z" fill="#4275B6"/>
</svg>
