<svg width="32" height="32" viewBox="0 0 24 24" fill="none" xmlns="http://www.w3.org/2000/svg">
  <path d="M5.94685 8.40315C9.29017 5.19895 14.7108 5.19895 18.0541 8.40315L18.6073 8.93332C18.691 9.0135 18.6912 9.14362 18.6077 9.22395C18.6076 9.2241 18.6075 9.22425 18.6073 9.2244L17.0797 10.6883C16.9963 10.7683 16.8611 10.7683 16.7776 10.6883L16.2237 10.1574C13.8913 7.9221 10.1097 7.9221 7.77735 10.1574L7.18405 10.726C7.10056 10.806 6.96543 10.806 6.88194 10.726L5.35438 9.26197C5.27073 9.1818 5.27056 9.05167 5.35398 8.97135C5.35411 8.9712 5.35424 8.97105 5.35438 8.97097L5.94685 8.40315ZM20.7491 10.9859L22.1248 12.3043C22.2921 12.4647 22.2924 12.7249 22.1256 12.8857C22.1253 12.886 22.1251 12.8862 22.1248 12.8865L16.6015 18.18C16.4344 18.34 16.1642 18.34 15.9972 18.18L12.076 14.422C12.0343 14.382 11.9668 14.382 11.925 14.422L8.00392 18.18C7.8369 18.34 7.56667 18.34 7.39968 18.18L1.87619 12.8864C1.7089 12.7261 1.70854 12.4657 1.8754 12.305C1.87566 12.3048 1.87592 12.3045 1.87619 12.3043L3.25183 10.9859C3.33532 10.9059 3.47046 10.9059 3.55395 10.9859L7.62622 14.8886C7.668 14.9287 7.73557 14.9287 7.77727 14.8886L11.6983 11.1307C11.8653 10.9706 12.1355 10.9706 12.3025 11.1307L16.2238 14.8886C16.2655 14.9287 16.333 14.9287 16.3748 14.8886L20.447 10.9859C20.5305 10.906 20.6656 10.906 20.7491 10.9859Z" fill="#3B99FC"/>
</svg>
