<svg width="729" height="275" fill="none" xmlns="http://www.w3.org/2000/svg"><g filter="url(#filter0_b_232_98)"><path d="M.659 217.614v-60.67L98.936.836l45.059 29.448L59.909 164.04l4.967 7.451H219.92v46.123H.659zm135.885 49.67V80.664h53.573v186.62h-53.573zm226.312 6.741c-20.577 0-38.199-3.311-52.863-9.934-14.665-6.859-26.61-16.084-35.834-27.674-8.988-11.589-15.729-24.953-20.224-40.091-4.257-15.374-6.386-31.576-6.386-48.606v-20.223c0-23.653 4.139-45.059 12.418-64.218 8.278-19.159 20.933-34.415 37.963-45.768C314.96 6.158 336.602.481 362.856.481c26.255 0 47.779 5.677 64.572 17.03 17.03 11.354 29.685 26.61 37.963 45.768 8.279 19.159 12.418 40.565 12.418 64.218v20.223c0 17.03-2.247 33.232-6.741 48.606-4.258 15.138-10.999 28.502-20.223 40.091-8.988 11.59-20.815 20.815-35.479 27.674-14.429 6.623-31.932 9.934-52.51 9.934zm0-53.573c19.159 0 33.351-6.623 42.575-19.868 9.462-13.483 14.192-34.297 14.192-62.444 0-29.802-4.849-51.208-14.546-64.217-9.461-13.245-23.535-19.868-42.221-19.868-19.158 0-33.468 6.623-42.929 19.868-9.461 13.009-14.192 34.178-14.192 63.508 0 28.383 4.612 49.316 13.837 62.798 9.461 13.482 23.889 20.223 43.284 20.223zm146.776-2.838v-60.67L607.909.836l45.059 29.448-84.086 133.756 4.967 7.451h155.044v46.123H509.632zm135.885 49.67V80.664h53.574v186.62h-53.574z" fill="url(#paint0_linear_232_98)" fill-opacity=".2"/><path d="M.659 217.614h-4.14v4.14h4.14v-4.14zm0-60.67l-3.504-2.206-.637 1.011v1.195h4.14zM98.936.836l2.265-3.466-3.525-2.304-2.244 3.564L98.936.836zm45.059 29.448l3.505 2.203 2.165-3.444-3.405-2.225-2.265 3.466zM59.909 164.04l-3.506-2.204-1.426 2.27 1.487 2.231 3.445-2.297zm4.967 7.451l-3.445 2.296 1.229 1.844h2.216v-4.14zm155.044 0h4.141v-4.141h-4.141v4.141zm0 46.123v4.14h4.141v-4.14h-4.141zm-83.376 49.67h-4.141v4.141h4.141v-4.141zm0-186.62v-4.14h-4.141v4.14h4.141zm53.573 0h4.141v-4.14h-4.141v4.14zm0 186.62v4.141h4.141v-4.141h-4.141zM4.799 217.614v-60.67h-8.28v60.67h8.28zm-.636-58.464L102.44 3.042 95.432-1.37-2.845 154.738l7.008 4.412zM96.67 4.302l45.058 29.448 4.531-6.932L101.201-2.63l-4.53 6.932zm43.818 23.778L56.403 161.836l7.011 4.408L147.5 32.487l-7.011-4.407zM56.464 166.337l4.967 7.45 6.89-4.593-4.967-7.451-6.89 4.594zm8.412 9.294H219.92v-8.281H64.876v8.281zm150.903-4.14v46.123h8.282v-46.123h-8.282zm4.141 41.982H.659v8.281H219.92v-8.281zm-79.235 53.811V80.664h-8.282v186.62h8.282zm-4.141-182.48h53.573v-8.28h-53.573v8.28zm49.433-4.14v186.62h8.281V80.664h-8.281zm4.14 182.48h-53.573v8.281h53.573v-8.281zm119.876.947l-1.755 3.751.025.012.025.011 1.705-3.774zm-35.834-27.674l-3.272 2.538.016.021.016.02 3.24-2.579zm-20.224-40.091l-3.99 1.105.01.037.011.036 3.969-1.178zm6.032-133.047l-3.801-1.642 3.801 1.642zm37.963-45.768l-2.297-3.445 2.297 3.445zm129.498 0l-2.319 3.43.011.008.012.007 2.296-3.445zm37.963 45.768l-3.801 1.643 3.801-1.643zm5.677 133.047l-3.975-1.162-.006.021-.005.02 3.986 1.121zm-20.223 40.091l-3.24-2.578-.016.02-.016.021 3.272 2.537zm-35.479 27.674l1.727 3.763.013-.006.014-.006-1.754-3.751zm-9.935-63.507l-3.389-2.379-.004.006-.004.006 3.397 2.367zm-.354-126.661l-3.37 2.407.025.034.025.034 3.32-2.475zm-85.15 0l3.348 2.435.011-.014.01-.014-3.369-2.407zm-.355 126.306l-3.417 2.338.013.02.014.02 3.39-2.378zm43.284 69.656c-20.148 0-37.157-3.244-51.159-9.568l-3.409 7.548c15.328 6.922 33.561 10.301 54.568 10.301v-8.281zm-51.109-9.544c-14.141-6.615-25.558-15.458-34.349-26.502l-6.479 5.157c9.658 12.135 22.13 21.741 37.319 28.846l3.509-7.501zm-34.316-26.461c-8.65-11.154-15.167-24.049-19.526-38.732l-7.939 2.356c4.629 15.593 11.594 29.425 20.921 41.451l6.544-5.075zm-19.505-38.659c-4.151-14.991-6.236-30.82-6.236-47.501h-8.281c0 17.378 2.172 33.953 6.536 49.711l7.981-2.21zm-6.236-47.501v-20.223h-8.281v20.223h8.281zm0-20.223c0-23.163 4.052-44 12.078-62.575l-7.602-3.285c-8.531 19.742-12.757 41.717-12.757 65.86h8.281zm12.078-62.575c7.968-18.44 20.107-33.065 36.458-43.966l-4.593-6.89c-17.709 11.806-30.878 27.694-39.467 47.57l7.602 3.286zm36.458-43.966c16.182-10.787 36.964-16.334 62.63-16.334V-3.66c-26.842 0-49.344 5.806-67.223 17.725l4.593 6.89zm62.63-16.334c25.67 0 46.321 5.548 62.253 16.32l4.639-6.861C412.093 2.145 389.696-3.66 362.856-3.66v8.28zm62.276 16.334c16.351 10.901 28.49 25.525 36.458 43.966l7.602-3.285c-8.589-19.877-21.758-35.765-39.467-47.571l-4.593 6.89zm36.458 43.966c8.027 18.575 12.078 39.412 12.078 62.575h8.282c0-24.143-4.227-46.118-12.758-65.86l-7.602 3.285zm12.078 62.575v20.223h8.282v-20.223h-8.282zm0 20.223c0 16.661-2.198 32.47-6.575 47.444l7.949 2.324c4.611-15.775 6.908-32.37 6.908-49.768h-8.282zm-6.586 47.485c-4.118 14.64-10.617 27.501-19.477 38.634l6.479 5.157c9.589-12.047 16.572-25.914 20.97-41.549l-7.972-2.242zm-19.509 38.675c-8.545 11.019-19.829 19.85-33.962 26.461l3.509 7.501c15.197-7.108 27.566-16.726 36.997-28.887l-6.544-5.075zm-33.935 26.448c-13.751 6.312-30.63 9.557-50.782 9.557v8.281c21.005 0 39.131-3.378 54.237-10.312l-3.455-7.526zm-50.782-35.735c20.224 0 35.823-7.068 45.973-21.643l-6.795-4.733c-8.299 11.916-21.084 18.094-39.178 18.094v8.282zm45.965-21.631c10.188-14.518 14.943-36.363 14.943-64.822h-8.282c0 27.835-4.706 47.619-13.44 60.065l6.779 4.757zm14.943-64.822c0-30.044-4.848-52.58-15.368-66.692l-6.639 4.95c8.876 11.907 13.725 32.182 13.725 61.742h8.282zm-15.318-66.624c-10.362-14.506-25.794-21.602-45.59-21.602v8.281c17.576 0 30.291 6.15 38.851 18.135l6.739-4.814zm-45.59-21.602c-20.225 0-35.916 7.066-46.299 21.602l6.739 4.814c8.539-11.955 21.469-18.135 39.56-18.135v-8.281zm-46.278 21.574c-10.251 14.095-14.984 36.366-14.984 65.943h8.282c0-29.082 4.728-49.15 13.399-61.073l-6.697-4.87zm-14.984 65.943c0 28.673 4.63 50.622 14.561 65.136l6.834-4.676c-8.519-12.451-13.113-32.367-13.113-60.46h-8.282zm14.588 65.176c10.382 14.794 26.204 21.986 46.674 21.986v-8.282c-18.32 0-31.354-6.29-39.895-18.461l-6.779 4.757zm193.45 15.007h-4.141v4.14h4.141v-4.14zm0-60.67l-3.504-2.206-.637 1.011v1.195h4.141zM607.909.836l2.265-3.466-3.525-2.304-2.244 3.564 3.504 2.206zm45.059 29.448l3.505 2.203 2.165-3.444-3.405-2.225-2.265 3.466zM568.882 164.04l-3.505-2.204-1.427 2.27 1.487 2.231 3.445-2.297zm4.967 7.451l-3.445 2.296 1.229 1.844h2.216v-4.14zm155.044 0h4.141v-4.141h-4.141v4.141zm0 46.123v4.14h4.141v-4.14h-4.141zm-83.376 49.67h-4.141v4.141h4.141v-4.141zm0-186.62v-4.14h-4.141v4.14h4.141zm53.574 0h4.14v-4.14h-4.14v4.14zm0 186.62v4.141h4.14v-4.141h-4.14zm-185.318-49.67v-60.67h-8.282v60.67h8.282zm-.637-58.464L611.413 3.042l-7.008-4.412-98.277 156.108 7.008 4.412zM605.644 4.302l45.058 29.448 4.531-6.932L610.174-2.63l-4.53 6.932zm43.818 23.778l-84.085 133.756 7.011 4.408 84.085-133.757-7.011-4.407zm-84.025 138.257l4.967 7.45 6.89-4.593-4.967-7.451-6.89 4.594zm8.412 9.294h155.044v-8.281H573.849v8.281zm150.903-4.14v46.123h8.282v-46.123h-8.282zm4.141 41.982H509.632v8.281h219.261v-8.281zm-79.235 53.811V80.664h-8.282v186.62h8.282zm-4.141-182.48h53.574v-8.28h-53.574v8.28zm49.433-4.14v186.62h8.281V80.664h-8.281zm4.141 182.48h-53.574v8.281h53.574v-8.281z" fill="#fff" fill-opacity=".6"/></g><defs><linearGradient id="paint0_linear_232_98" x1="-11.049" y1="-76.716" x2="724.799" y2="-72.991" gradientUnits="userSpaceOnUse"><stop stop-color="#fff" stop-opacity=".8"/><stop offset="1" stop-color="#fff" stop-opacity=".2"/></linearGradient><filter id="filter0_b_232_98" x="-24.185" y="-24.363" width="777.923" height="323.232" filterUnits="userSpaceOnUse" color-interpolation-filters="sRGB"><feFlood flood-opacity="0" result="BackgroundImageFix"/><feGaussianBlur in="BackgroundImage" stdDeviation="12.422"/><feComposite in2="SourceAlpha" operator="in" result="effect1_backgroundBlur_232_98"/><feBlend in="SourceGraphic" in2="effect1_backgroundBlur_232_98" result="shape"/></filter></defs></svg>