<svg width="18" height="18" fill="none" xmlns="http://www.w3.org/2000/svg"><path d="M9.07 4.445A4.357 4.357 0 0 0 4.705 8.81a4.357 4.357 0 0 0 4.363 4.363 4.357 4.357 0 0 0 4.364-4.363 4.357 4.357 0 0 0-4.364-4.364zm0 7.2a2.842 2.842 0 0 1-2.836-2.836 2.842 2.842 0 0 1 2.835-2.836 2.842 2.842 0 0 1 2.836 2.836 2.842 2.842 0 0 1-2.836 2.836zm4.54-8.395a1.018 1.018 0 1 0 0 2.038 1.016 1.016 0 0 0 .942-1.41 1.018 1.018 0 0 0-.942-.628zm3.964 5.559c0-1.175.01-2.338-.055-3.51-.066-1.362-.377-2.57-1.373-3.566C15.15.735 13.943.427 12.582.36 11.407.295 10.244.305 9.072.305c-1.175 0-2.339-.01-3.51.056C4.2.427 2.991.737 1.995 1.733.998 2.73.689 3.937.624 5.298.558 6.473.568 7.636.568 8.808c0 1.173-.01 2.339.056 3.51.065 1.363.376 2.57 1.372 3.566.997.998 2.204 1.307 3.565 1.373 1.175.066 2.338.055 3.51.055 1.175 0 2.339.01 3.51-.055 1.362-.066 2.57-.377 3.566-1.373.998-.997 1.307-2.204 1.373-3.565.068-1.172.055-2.336.055-3.51zm-1.872 5.016a2.704 2.704 0 0 1-.643.975c-.3.3-.587.487-.974.642-1.12.445-3.776.345-5.017.345-1.24 0-3.9.1-5.018-.343a2.703 2.703 0 0 1-.975-.642 2.72 2.72 0 0 1-.642-.975c-.443-1.12-.343-3.778-.343-5.018 0-1.24-.1-3.9.343-5.019a2.7 2.7 0 0 1 .642-.974c.3-.298.588-.487.975-.643 1.119-.442 3.778-.342 5.018-.342 1.24 0 3.9-.1 5.019.342.387.156.677.343.974.643.3.3.488.587.643.974.442 1.12.342 3.778.342 5.019 0 1.24.1 3.897-.344 5.016z" fill="#fff"/></svg>