<svg width="21" height="21" fill="none" xmlns="http://www.w3.org/2000/svg"><path fill-rule="evenodd" clip-rule="evenodd" d="M.407 2.492A1.668 1.668 0 0 1 2.075.824h16.631a1.668 1.668 0 0 1 1.67 1.668v16.631a1.667 1.667 0 0 1-1.669 1.67H2.075a1.668 1.668 0 0 1-1.668-1.669V2.492zm7.904 5.946h2.704v1.357c.39-.78 1.39-1.483 2.89-1.483 2.876 0 3.558 1.555 3.558 4.408v5.285h-2.911V13.37c0-1.625-.39-2.542-1.382-2.542-1.375 0-1.947.989-1.947 2.542v4.635H8.311V8.438zM3.32 17.88h2.912V8.312H3.319v9.568zM6.648 5.192a1.873 1.873 0 1 1-3.745.082 1.873 1.873 0 0 1 3.745-.082z" fill="#fff"/></svg>