<svg width="63" height="59" viewBox="0 0 63 59" fill="none" xmlns="http://www.w3.org/2000/svg">
<path d="M59.028 1.04053L34.8906 18.9005L39.3792 8.37502L59.028 1.04053Z" fill="#E17726" stroke="#E17726" stroke-width="0.459441" stroke-linecap="round" stroke-linejoin="round"/>
<path d="M3.35193 1.04053L27.2744 19.0671L23.0009 8.375L3.35193 1.04053Z" fill="#E27625" stroke="#E27625" stroke-width="0.459441" stroke-linecap="round" stroke-linejoin="round"/>
<path d="M50.3369 42.4509L43.9147 52.262L57.6665 56.0484L61.6059 42.6654L50.3369 42.4509Z" fill="#E27625" stroke="#E27625" stroke-width="0.459441" stroke-linecap="round" stroke-linejoin="round"/>
<path d="M0.797119 42.6654L4.71255 56.0484L18.4405 52.262L12.0421 42.4509L0.797119 42.6654Z" fill="#E27625" stroke="#E27625" stroke-width="0.459441" stroke-linecap="round" stroke-linejoin="round"/>
<path d="M17.7004 25.8774L13.8805 31.6403L27.489 32.2594L27.0355 17.6143L17.7004 25.8774Z" fill="#E27625" stroke="#E27625" stroke-width="0.459441" stroke-linecap="round" stroke-linejoin="round"/>
<path d="M44.6786 25.8783L35.2005 17.4485L34.8901 32.2603L48.4986 31.6412L44.6786 25.8783Z" fill="#E27625" stroke="#E27625" stroke-width="0.459441" stroke-linecap="round" stroke-linejoin="round"/>
<path d="M18.4408 52.2622L26.6775 48.2854L19.5868 42.7607L18.4408 52.2622Z" fill="#E27625" stroke="#E27625" stroke-width="0.459441" stroke-linecap="round" stroke-linejoin="round"/>
<path d="M35.7024 48.2854L43.9152 52.2622L42.793 42.7607L35.7024 48.2854Z" fill="#E27625" stroke="#E27625" stroke-width="0.459441" stroke-linecap="round" stroke-linejoin="round"/>
<path d="M43.9152 52.2629L35.7024 48.2861L36.3708 53.6202L36.2991 55.8825L43.9152 52.2629Z" fill="#D5BFB2" stroke="#D5BFB2" stroke-width="0.459441" stroke-linecap="round" stroke-linejoin="round"/>
<path d="M18.4408 52.2629L26.0807 55.8825L26.033 53.6202L26.6775 48.2861L18.4408 52.2629Z" fill="#D5BFB2" stroke="#D5BFB2" stroke-width="0.459441" stroke-linecap="round" stroke-linejoin="round"/>
<path d="M26.2237 39.2371L19.3955 37.2369L24.2182 35.0222L26.2237 39.2371Z" fill="#233447" stroke="#233447" stroke-width="0.459441" stroke-linecap="round" stroke-linejoin="round"/>
<path d="M36.1558 39.2371L38.1613 35.0222L43.0079 37.2369L36.1558 39.2371Z" fill="#233447" stroke="#233447" stroke-width="0.459441" stroke-linecap="round" stroke-linejoin="round"/>
<path d="M18.4407 52.262L19.6345 42.4509L12.0424 42.6654L18.4407 52.262Z" fill="#CC6228" stroke="#CC6228" stroke-width="0.459441" stroke-linecap="round" stroke-linejoin="round"/>
<path d="M42.7449 42.4509L43.9148 52.262L50.337 42.6654L42.7449 42.4509Z" fill="#CC6228" stroke="#CC6228" stroke-width="0.459441" stroke-linecap="round" stroke-linejoin="round"/>
<path d="M48.4986 31.6404L34.8901 32.2595L36.1554 39.237L38.161 35.0219L43.0075 37.2366L48.4986 31.6404Z" fill="#CC6228" stroke="#CC6228" stroke-width="0.459441" stroke-linecap="round" stroke-linejoin="round"/>
<path d="M19.3955 37.2366L24.2182 35.0219L26.2237 39.237L27.489 32.2595L13.8805 31.6404L19.3955 37.2366Z" fill="#CC6228" stroke="#CC6228" stroke-width="0.459441" stroke-linecap="round" stroke-linejoin="round"/>
<path d="M13.881 31.6404L19.5871 42.7612L19.3959 37.2366L13.881 31.6404Z" fill="#E27525" stroke="#E27525" stroke-width="0.459441" stroke-linecap="round" stroke-linejoin="round"/>
<path d="M43.0078 37.2366L42.793 42.7612L48.499 31.6404L43.0078 37.2366Z" fill="#E27525" stroke="#E27525" stroke-width="0.459441" stroke-linecap="round" stroke-linejoin="round"/>
<path d="M27.4901 32.2595L26.2246 39.237L27.8242 47.4762L28.1824 36.6174L27.4901 32.2595Z" fill="#E27525" stroke="#E27525" stroke-width="0.459441" stroke-linecap="round" stroke-linejoin="round"/>
<path d="M34.8904 32.2595L34.2218 36.5937L34.5561 47.4762L36.1557 39.237L34.8904 32.2595Z" fill="#E27525" stroke="#E27525" stroke-width="0.459441" stroke-linecap="round" stroke-linejoin="round"/>
<path d="M36.1559 39.2372L34.5563 47.4765L35.7023 48.2862L42.7931 42.7615L43.008 37.2368L36.1559 39.2372Z" fill="#F5841F" stroke="#F5841F" stroke-width="0.459441" stroke-linecap="round" stroke-linejoin="round"/>
<path d="M19.3955 37.2368L19.5866 42.7615L26.6773 48.2862L27.8233 47.4765L26.2237 39.2372L19.3955 37.2368Z" fill="#F5841F" stroke="#F5841F" stroke-width="0.459441" stroke-linecap="round" stroke-linejoin="round"/>
<path d="M36.2991 55.8826L36.3706 53.6203L35.75 53.0964H26.6299L26.033 53.6203L26.0807 55.8826L18.4408 52.2629L21.1147 54.4537L26.5343 58.1925H35.8214L41.2649 54.4537L43.915 52.2629L36.2991 55.8826Z" fill="#C0AC9D" stroke="#C0AC9D" stroke-width="0.459441" stroke-linecap="round" stroke-linejoin="round"/>
<path d="M35.702 48.2856L34.556 47.4761H27.8234L26.6775 48.2856L26.0328 53.6199L26.6297 53.096H35.7498L36.3706 53.6199L35.702 48.2856Z" fill="white" stroke="white" stroke-width="0.459441" stroke-linecap="round" stroke-linejoin="round"/>
<path d="M60.0544 20.0673L62.0839 10.2086L59.0278 1.04053L35.7024 18.3052L44.6791 25.8777L57.3566 29.5689L60.15 26.3065L58.9325 25.4253L60.8661 23.6632L59.386 22.5201L61.3199 21.0437L60.0544 20.0673Z" fill="#763E1A" stroke="#763E1A" stroke-width="0.459441" stroke-linecap="round" stroke-linejoin="round"/>
<path d="M0.296143 10.2086L2.34937 20.0673L1.03626 21.0437L2.99398 22.5201L1.51375 23.6632L3.44759 25.4253L2.22998 26.3065L5.02333 29.5689L17.7009 25.8777L26.6776 18.3052L3.3521 1.04053L0.296143 10.2086Z" fill="#763E1A" stroke="#763E1A" stroke-width="0.459441" stroke-linecap="round" stroke-linejoin="round"/>
<path d="M57.3565 29.5691L44.6791 25.8782L48.499 31.641L42.793 42.7617L50.3374 42.6665H61.6062L57.3565 29.5691Z" fill="#F5841F" stroke="#F5841F" stroke-width="0.459441" stroke-linecap="round" stroke-linejoin="round"/>
<path d="M17.7003 25.8782L5.02293 29.5691L0.797119 42.6665H12.0421L19.5864 42.7617L13.8804 31.641L17.7003 25.8782Z" fill="#F5841F" stroke="#F5841F" stroke-width="0.459441" stroke-linecap="round" stroke-linejoin="round"/>
<path d="M34.8903 32.2605L35.7021 18.3058L39.3787 8.37573H23.0007L26.6774 18.3058L27.4891 32.2605L27.7995 36.6421L27.8234 47.4771H34.556L34.5799 36.6421L34.8903 32.2605Z" fill="#F5841F" stroke="#F5841F" stroke-width="0.459441" stroke-linecap="round" stroke-linejoin="round"/>
</svg>
