<svg width="51" height="58" viewBox="0 0 51 58" fill="none" xmlns="http://www.w3.org/2000/svg">
<path fill-rule="evenodd" clip-rule="evenodd" d="M50.9633 33.1369V37.173C50.9633 48.4742 34.4958 54.932 29.491 56.5465L27.7151 57.1923V50.2501L28.6838 49.9272C36.5946 47.0212 44.5055 42.0164 44.5055 37.173V33.1369H50.9633ZM25.9392 0.0405273L32.7199 2.13932V9.24293L25.9392 7.14413L25.4549 7.30558V23.2887H32.5585V29.908H25.4549V57.0308L23.5175 56.385C22.7103 56.0621 21.2573 55.5778 19.4814 54.7706L18.6742 54.4477V2.13932L25.9392 0.0405273ZM16.7368 2.94655V10.0502L7.53443 12.7947V23.2887H16.7368V53.8019L14.638 52.8332C8.34166 49.6043 0.915161 44.2766 0.915161 36.6887V33.1369H7.53443V36.6887C7.53443 38.3031 8.34166 39.9176 9.95611 41.532V29.908H0.915161V7.62847L16.7368 2.94655ZM34.6573 2.7851L50.8018 7.78992V30.0694H41.2766V39.7561C41.2766 39.7561 39.1778 42.5007 34.6573 44.761C34.6573 43.4694 34.6573 23.9345 34.6573 11.9875V2.7851ZM41.438 11.8261V23.2887H44.344V12.7947L41.438 11.8261Z" fill="white"/>
</svg>
