<svg width="55" height="63" viewBox="0 0 55 63" fill="none" xmlns="http://www.w3.org/2000/svg">
<path d="M27.7117 3.08325C37.5814 10.7298 48.9 10.2579 52.1334 10.2579C51.4272 53.7478 46.0371 47.9539 27.7117 60.1482C9.38621 47.9555 4.02935 53.7478 3.32629 10.2579C6.52173 10.2579 17.8419 10.7298 27.7117 3.08325Z" fill="white"/>
<path d="M27.7118 3.0828L29.1369 1.24123C28.7289 0.925627 28.2277 0.754395 27.7118 0.754395C27.196 0.754395 26.6947 0.925627 26.2867 1.24123L27.7118 3.0828ZM52.1336 10.2575L54.4644 10.2955C54.4693 9.98634 54.4126 9.67933 54.2976 9.39232C54.1826 9.10531 54.0117 8.84404 53.7948 8.62373C53.5778 8.40341 53.3193 8.22846 53.0341 8.10905C52.7489 7.98965 52.4428 7.92817 52.1336 7.92821V10.2575ZM27.7118 60.1477L26.4213 62.0874C26.8034 62.3423 27.2525 62.4783 27.7118 62.4783C28.1711 62.4783 28.6202 62.3423 29.0023 62.0874L27.7118 60.1477ZM3.32646 10.2575V7.92821C3.01741 7.92838 2.71148 7.99001 2.42647 8.10951C2.14146 8.22901 1.88306 8.404 1.66631 8.62429C1.44955 8.84458 1.27877 9.10578 1.1639 9.39268C1.04902 9.67959 0.992353 9.98647 0.997182 10.2955L3.32646 10.2575ZM26.2867 4.92437C36.8595 13.1156 48.9572 12.5883 52.1352 12.5883V7.92821C48.8479 7.92821 38.3068 8.34307 29.1401 1.24123L26.2867 4.92437ZM49.8059 10.2195C49.6317 21.0409 49.1725 28.6748 48.2969 34.3293C47.4307 39.9253 46.194 43.2775 44.601 45.6337C42.9875 48.0801 40.9591 49.5322 37.9647 51.3246C34.9387 53.1361 31.1178 55.0885 26.4229 58.208L29.0039 62.0874C33.4709 59.1105 37.1952 57.2135 40.3574 55.3229C43.5449 53.4116 46.3476 51.3088 48.4615 48.2432C50.596 45.0858 51.9832 40.9719 52.8952 35.0419C53.801 29.1704 54.2823 21.2198 54.4613 10.2955L49.8059 10.2195ZM29.0023 58.208C24.3074 55.0885 20.488 53.1409 17.4668 51.3246C14.4709 49.5337 12.4504 48.0817 10.8416 45.6352C9.25812 43.2806 8.01985 39.9348 7.15686 34.3309C6.28279 28.6748 5.82675 21.0409 5.65098 10.2195L0.992432 10.2955C1.17136 21.2214 1.64957 29.1704 2.55214 35.0403C3.4658 40.9704 4.84975 45.0842 6.98585 48.2416C9.09344 51.3072 11.8946 53.4116 15.0789 55.3229C18.2364 57.212 21.9591 59.1105 26.4276 62.0874L29.0023 58.208ZM3.32171 12.5883C6.46805 12.5883 18.5657 13.1156 29.1322 4.92437L26.2819 1.24123C17.1137 8.34307 6.57256 7.92821 3.32171 7.92821V12.5883Z" fill="#3375BB"/>
</svg>
