<svg width="22" height="18" fill="none" xmlns="http://www.w3.org/2000/svg"><path d="M21.606 2.399a8.468 8.468 0 0 1-2.429.665 4.239 4.239 0 0 0 1.86-2.34A8.44 8.44 0 0 1 18.35 1.75a4.23 4.23 0 0 0-7.205 3.857A12.008 12.008 0 0 1 2.43 1.19a4.23 4.23 0 0 0 1.31 5.645 4.218 4.218 0 0 1-1.915-.53v.055a4.23 4.23 0 0 0 3.392 4.146 4.258 4.258 0 0 1-1.91.073 4.231 4.231 0 0 0 3.95 2.935 8.485 8.485 0 0 1-5.251 1.811 8.62 8.62 0 0 1-1.01-.059 11.959 11.959 0 0 0 6.481 1.9c7.78 0 12.032-6.443 12.032-12.03a12.3 12.3 0 0 0-.013-.547A8.597 8.597 0 0 0 21.604 2.4l.002-.002z" fill="#fff"/></svg>