<svg width="896" height="650" viewBox="0 0 896 650" fill="none" xmlns="http://www.w3.org/2000/svg">
<path d="M896 322.2C896 320 896 317.5 895.9 314.6C895.8 306.5 895.6 297.4 895.4 287.7C894.6 259.8 893.2 232 891 205.8C888 169.7 883.6 139.6 877.6 117C871.268 93.415 858.857 71.905 841.607 54.6198C824.357 37.3345 802.872 24.8797 779.3 18.5001C751 10.9001 695.6 6.20009 617.6 3.30009C580.5 1.90009 540.8 1.00009 501.1 0.500092C487.2 0.300092 474.3 0.200098 462.7 0.100098H433.3C421.7 0.200098 408.8 0.300092 394.9 0.500092C355.2 1.00009 315.5 1.90009 278.4 3.30009C200.4 6.30009 144.9 11.0001 116.7 18.5001C93.1201 24.864 71.6269 37.3136 54.3744 54.6013C37.1219 71.8889 24.716 93.4073 18.4 117C12.3 139.6 8 169.7 5 205.8C2.8 232 1.4 259.8 0.599998 287.7C0.299998 297.4 0.199998 306.5 0.0999985 314.6C0.0999985 317.5 0 320 0 322.2V327.8C0 330 -1.52737e-06 332.5 0.0999985 335.4C0.199998 343.5 0.399998 352.6 0.599998 362.3C1.4 390.2 2.8 418 5 444.2C8 480.3 12.4 510.4 18.4 533C31.2 580.9 68.8 618.7 116.7 631.5C144.9 639.1 200.4 643.8 278.4 646.7C315.5 648.1 355.2 649 394.9 649.5C408.8 649.7 421.7 649.8 433.3 649.9H462.7C474.3 649.8 487.2 649.7 501.1 649.5C540.8 649 580.5 648.1 617.6 646.7C695.6 643.7 751.1 639 779.3 631.5C827.2 618.7 864.8 581 877.6 533C883.7 510.4 888 480.3 891 444.2C893.2 418 894.6 390.2 895.4 362.3C895.7 352.6 895.8 343.5 895.9 335.4C895.9 332.5 896 330 896 327.8V322.2ZM824 327.4C824 329.5 824 331.8 823.9 334.5C823.8 342.3 823.6 350.9 823.4 360.2C822.7 386.8 821.3 413.4 819.2 438.1C816.5 470.3 812.7 496.7 808 514.4C801.8 537.5 783.6 555.8 760.6 561.9C739.6 567.5 686.7 572 614.8 574.7C578.4 576.1 539.2 577 500.1 577.5C486.4 577.7 473.7 577.8 462.3 577.8H433.7L395.9 577.5C356.8 577 317.7 576.1 281.2 574.7C209.3 571.9 156.3 567.5 135.4 561.9C112.4 555.7 94.2 537.5 88 514.4C83.3 496.7 79.5 470.3 76.8 438.1C74.7 413.4 73.4 386.8 72.6 360.2C72.3 350.9 72.2 342.2 72.1 334.5C72.1 331.8 72 329.4 72 327.4V322.6C72 320.5 72 318.2 72.1 315.5C72.2 307.7 72.4 299.1 72.6 289.8C73.3 263.2 74.7 236.6 76.8 211.9C79.5 179.7 83.3 153.3 88 135.6C94.2 112.5 112.4 94.2001 135.4 88.1001C156.4 82.5001 209.3 78.0001 281.2 75.3001C317.6 73.9001 356.8 73.0001 395.9 72.5001C409.6 72.3001 422.3 72.2001 433.7 72.2001H462.3L500.1 72.5001C539.2 73.0001 578.3 73.9001 614.8 75.3001C686.7 78.1001 739.7 82.5001 760.6 88.1001C783.6 94.3001 801.8 112.5 808 135.6C812.7 153.3 816.5 179.7 819.2 211.9C821.3 236.6 822.6 263.2 823.4 289.8C823.7 299.1 823.8 307.8 823.9 315.5C823.9 318.2 824 320.6 824 322.6V327.4ZM359 459L591 324L359 191V459Z" fill="white"/>
</svg>
